<?xml version="1.0" encoding="utf-8" standalone="no"?>
<!DOCTYPE svg PUBLIC "-//W3C//DTD SVG 1.1//EN"
  "http://www.w3.org/Graphics/SVG/1.1/DTD/svg11.dtd">
<svg xmlns:xlink="http://www.w3.org/1999/xlink" width="460.8pt" height="345.6pt" viewBox="0 0 460.8 345.6" xmlns="http://www.w3.org/2000/svg" version="1.1">
 <metadata>
  <rdf:RDF xmlns:dc="http://purl.org/dc/elements/1.1/" xmlns:cc="http://creativecommons.org/ns#" xmlns:rdf="http://www.w3.org/1999/02/22-rdf-syntax-ns#">
   <cc:Work>
    <dc:type rdf:resource="http://purl.org/dc/dcmitype/StillImage"/>
    <dc:date>2024-03-28T00:25:49.122463</dc:date>
    <dc:format>image/svg+xml</dc:format>
    <dc:creator>
     <cc:Agent>
      <dc:title>Matplotlib v3.7.1, https://matplotlib.org/</dc:title>
     </cc:Agent>
    </dc:creator>
   </cc:Work>
  </rdf:RDF>
 </metadata>
 <defs>
  <style type="text/css">*{stroke-linejoin: round; stroke-linecap: butt}</style>
 </defs>
 <g id="figure_1">
  <g id="patch_1">
   <path d="M 0 345.6 
L 460.8 345.6 
L 460.8 0 
L 0 0 
z
" style="fill: #ffffff"/>
  </g>
  <g id="axes_1">
   <g id="patch_2">
    <path d="M 47.72 303.64 
L 450 303.64 
L 450 26.88 
L 47.72 26.88 
z
" style="fill: #ffffff"/>
   </g>
   <g id="matplotlib.axis_1">
    <g id="xtick_1">
     <g id="line2d_1">
      <defs>
       <path id="md43246e128" d="M 0 0 
L 0 3.5 
" style="stroke: #000000; stroke-width: 0.8"/>
      </defs>
      <g>
       <use xlink:href="#md43246e128" x="82.25096" y="303.64" style="stroke: #000000; stroke-width: 0.8"/>
      </g>
     </g>
     <g id="text_1">
      <!-- 2006 -->
      <g transform="translate(69.52596 318.238437) scale(0.1 -0.1)">
       <defs>
        <path id="DejaVuSans-32" d="M 1228 531 
L 3431 531 
L 3431 0 
L 469 0 
L 469 531 
Q 828 903 1448 1529 
Q 2069 2156 2228 2338 
Q 2531 2678 2651 2914 
Q 2772 3150 2772 3378 
Q 2772 3750 2511 3984 
Q 2250 4219 1831 4219 
Q 1534 4219 1204 4116 
Q 875 4013 500 3803 
L 500 4441 
Q 881 4594 1212 4672 
Q 1544 4750 1819 4750 
Q 2544 4750 2975 4387 
Q 3406 4025 3406 3419 
Q 3406 3131 3298 2873 
Q 3191 2616 2906 2266 
Q 2828 2175 2409 1742 
Q 1991 1309 1228 531 
z
" transform="scale(0.015625)"/>
        <path id="DejaVuSans-30" d="M 2034 4250 
Q 1547 4250 1301 3770 
Q 1056 3291 1056 2328 
Q 1056 1369 1301 889 
Q 1547 409 2034 409 
Q 2525 409 2770 889 
Q 3016 1369 3016 2328 
Q 3016 3291 2770 3770 
Q 2525 4250 2034 4250 
z
M 2034 4750 
Q 2819 4750 3233 4129 
Q 3647 3509 3647 2328 
Q 3647 1150 3233 529 
Q 2819 -91 2034 -91 
Q 1250 -91 836 529 
Q 422 1150 422 2328 
Q 422 3509 836 4129 
Q 1250 4750 2034 4750 
z
" transform="scale(0.015625)"/>
        <path id="DejaVuSans-36" d="M 2113 2584 
Q 1688 2584 1439 2293 
Q 1191 2003 1191 1497 
Q 1191 994 1439 701 
Q 1688 409 2113 409 
Q 2538 409 2786 701 
Q 3034 994 3034 1497 
Q 3034 2003 2786 2293 
Q 2538 2584 2113 2584 
z
M 3366 4563 
L 3366 3988 
Q 3128 4100 2886 4159 
Q 2644 4219 2406 4219 
Q 1781 4219 1451 3797 
Q 1122 3375 1075 2522 
Q 1259 2794 1537 2939 
Q 1816 3084 2150 3084 
Q 2853 3084 3261 2657 
Q 3669 2231 3669 1497 
Q 3669 778 3244 343 
Q 2819 -91 2113 -91 
Q 1303 -91 875 529 
Q 447 1150 447 2328 
Q 447 3434 972 4092 
Q 1497 4750 2381 4750 
Q 2619 4750 2861 4703 
Q 3103 4656 3366 4563 
z
" transform="scale(0.015625)"/>
       </defs>
       <use xlink:href="#DejaVuSans-32"/>
       <use xlink:href="#DejaVuSans-30" x="63.623047"/>
       <use xlink:href="#DejaVuSans-30" x="127.246094"/>
       <use xlink:href="#DejaVuSans-36" x="190.869141"/>
      </g>
     </g>
    </g>
    <g id="xtick_2">
     <g id="line2d_2">
      <g>
       <use xlink:href="#md43246e128" x="120.880339" y="303.64" style="stroke: #000000; stroke-width: 0.8"/>
      </g>
     </g>
     <g id="text_2">
      <!-- 2008 -->
      <g transform="translate(108.155339 318.238437) scale(0.1 -0.1)">
       <defs>
        <path id="DejaVuSans-38" d="M 2034 2216 
Q 1584 2216 1326 1975 
Q 1069 1734 1069 1313 
Q 1069 891 1326 650 
Q 1584 409 2034 409 
Q 2484 409 2743 651 
Q 3003 894 3003 1313 
Q 3003 1734 2745 1975 
Q 2488 2216 2034 2216 
z
M 1403 2484 
Q 997 2584 770 2862 
Q 544 3141 544 3541 
Q 544 4100 942 4425 
Q 1341 4750 2034 4750 
Q 2731 4750 3128 4425 
Q 3525 4100 3525 3541 
Q 3525 3141 3298 2862 
Q 3072 2584 2669 2484 
Q 3125 2378 3379 2068 
Q 3634 1759 3634 1313 
Q 3634 634 3220 271 
Q 2806 -91 2034 -91 
Q 1263 -91 848 271 
Q 434 634 434 1313 
Q 434 1759 690 2068 
Q 947 2378 1403 2484 
z
M 1172 3481 
Q 1172 3119 1398 2916 
Q 1625 2713 2034 2713 
Q 2441 2713 2670 2916 
Q 2900 3119 2900 3481 
Q 2900 3844 2670 4047 
Q 2441 4250 2034 4250 
Q 1625 4250 1398 4047 
Q 1172 3844 1172 3481 
z
" transform="scale(0.015625)"/>
       </defs>
       <use xlink:href="#DejaVuSans-32"/>
       <use xlink:href="#DejaVuSans-30" x="63.623047"/>
       <use xlink:href="#DejaVuSans-30" x="127.246094"/>
       <use xlink:href="#DejaVuSans-38" x="190.869141"/>
      </g>
     </g>
    </g>
    <g id="xtick_3">
     <g id="line2d_3">
      <g>
       <use xlink:href="#md43246e128" x="159.562635" y="303.64" style="stroke: #000000; stroke-width: 0.8"/>
      </g>
     </g>
     <g id="text_3">
      <!-- 2010 -->
      <g transform="translate(146.837635 318.238437) scale(0.1 -0.1)">
       <defs>
        <path id="DejaVuSans-31" d="M 794 531 
L 1825 531 
L 1825 4091 
L 703 3866 
L 703 4441 
L 1819 4666 
L 2450 4666 
L 2450 531 
L 3481 531 
L 3481 0 
L 794 0 
L 794 531 
z
" transform="scale(0.015625)"/>
       </defs>
       <use xlink:href="#DejaVuSans-32"/>
       <use xlink:href="#DejaVuSans-30" x="63.623047"/>
       <use xlink:href="#DejaVuSans-31" x="127.246094"/>
       <use xlink:href="#DejaVuSans-30" x="190.869141"/>
      </g>
     </g>
    </g>
    <g id="xtick_4">
     <g id="line2d_4">
      <g>
       <use xlink:href="#md43246e128" x="198.192014" y="303.64" style="stroke: #000000; stroke-width: 0.8"/>
      </g>
     </g>
     <g id="text_4">
      <!-- 2012 -->
      <g transform="translate(185.467014 318.238437) scale(0.1 -0.1)">
       <use xlink:href="#DejaVuSans-32"/>
       <use xlink:href="#DejaVuSans-30" x="63.623047"/>
       <use xlink:href="#DejaVuSans-31" x="127.246094"/>
       <use xlink:href="#DejaVuSans-32" x="190.869141"/>
      </g>
     </g>
    </g>
    <g id="xtick_5">
     <g id="line2d_5">
      <g>
       <use xlink:href="#md43246e128" x="236.874309" y="303.64" style="stroke: #000000; stroke-width: 0.8"/>
      </g>
     </g>
     <g id="text_5">
      <!-- 2014 -->
      <g transform="translate(224.149309 318.238437) scale(0.1 -0.1)">
       <defs>
        <path id="DejaVuSans-34" d="M 2419 4116 
L 825 1625 
L 2419 1625 
L 2419 4116 
z
M 2253 4666 
L 3047 4666 
L 3047 1625 
L 3713 1625 
L 3713 1100 
L 3047 1100 
L 3047 0 
L 2419 0 
L 2419 1100 
L 313 1100 
L 313 1709 
L 2253 4666 
z
" transform="scale(0.015625)"/>
       </defs>
       <use xlink:href="#DejaVuSans-32"/>
       <use xlink:href="#DejaVuSans-30" x="63.623047"/>
       <use xlink:href="#DejaVuSans-31" x="127.246094"/>
       <use xlink:href="#DejaVuSans-34" x="190.869141"/>
      </g>
     </g>
    </g>
    <g id="xtick_6">
     <g id="line2d_6">
      <g>
       <use xlink:href="#md43246e128" x="275.503688" y="303.64" style="stroke: #000000; stroke-width: 0.8"/>
      </g>
     </g>
     <g id="text_6">
      <!-- 2016 -->
      <g transform="translate(262.778688 318.238437) scale(0.1 -0.1)">
       <use xlink:href="#DejaVuSans-32"/>
       <use xlink:href="#DejaVuSans-30" x="63.623047"/>
       <use xlink:href="#DejaVuSans-31" x="127.246094"/>
       <use xlink:href="#DejaVuSans-36" x="190.869141"/>
      </g>
     </g>
    </g>
    <g id="xtick_7">
     <g id="line2d_7">
      <g>
       <use xlink:href="#md43246e128" x="314.185984" y="303.64" style="stroke: #000000; stroke-width: 0.8"/>
      </g>
     </g>
     <g id="text_7">
      <!-- 2018 -->
      <g transform="translate(301.460984 318.238437) scale(0.1 -0.1)">
       <use xlink:href="#DejaVuSans-32"/>
       <use xlink:href="#DejaVuSans-30" x="63.623047"/>
       <use xlink:href="#DejaVuSans-31" x="127.246094"/>
       <use xlink:href="#DejaVuSans-38" x="190.869141"/>
      </g>
     </g>
    </g>
    <g id="xtick_8">
     <g id="line2d_8">
      <g>
       <use xlink:href="#md43246e128" x="352.815362" y="303.64" style="stroke: #000000; stroke-width: 0.8"/>
      </g>
     </g>
     <g id="text_8">
      <!-- 2020 -->
      <g transform="translate(340.090362 318.238437) scale(0.1 -0.1)">
       <use xlink:href="#DejaVuSans-32"/>
       <use xlink:href="#DejaVuSans-30" x="63.623047"/>
       <use xlink:href="#DejaVuSans-32" x="127.246094"/>
       <use xlink:href="#DejaVuSans-30" x="190.869141"/>
      </g>
     </g>
    </g>
    <g id="xtick_9">
     <g id="line2d_9">
      <g>
       <use xlink:href="#md43246e128" x="391.497658" y="303.64" style="stroke: #000000; stroke-width: 0.8"/>
      </g>
     </g>
     <g id="text_9">
      <!-- 2022 -->
      <g transform="translate(378.772658 318.238437) scale(0.1 -0.1)">
       <use xlink:href="#DejaVuSans-32"/>
       <use xlink:href="#DejaVuSans-30" x="63.623047"/>
       <use xlink:href="#DejaVuSans-32" x="127.246094"/>
       <use xlink:href="#DejaVuSans-32" x="190.869141"/>
      </g>
     </g>
    </g>
    <g id="xtick_10">
     <g id="line2d_10">
      <g>
       <use xlink:href="#md43246e128" x="430.127037" y="303.64" style="stroke: #000000; stroke-width: 0.8"/>
      </g>
     </g>
     <g id="text_10">
      <!-- 2024 -->
      <g transform="translate(417.402037 318.238437) scale(0.1 -0.1)">
       <use xlink:href="#DejaVuSans-32"/>
       <use xlink:href="#DejaVuSans-30" x="63.623047"/>
       <use xlink:href="#DejaVuSans-32" x="127.246094"/>
       <use xlink:href="#DejaVuSans-34" x="190.869141"/>
      </g>
     </g>
    </g>
    <g id="text_11">
     <!-- Years (2005-2024) -->
     <g transform="translate(202.923281 331.916562) scale(0.1 -0.1)">
      <defs>
       <path id="DejaVuSans-59" d="M -13 4666 
L 666 4666 
L 1959 2747 
L 3244 4666 
L 3922 4666 
L 2272 2222 
L 2272 0 
L 1638 0 
L 1638 2222 
L -13 4666 
z
" transform="scale(0.015625)"/>
       <path id="DejaVuSans-65" d="M 3597 1894 
L 3597 1613 
L 953 1613 
Q 991 1019 1311 708 
Q 1631 397 2203 397 
Q 2534 397 2845 478 
Q 3156 559 3463 722 
L 3463 178 
Q 3153 47 2828 -22 
Q 2503 -91 2169 -91 
Q 1331 -91 842 396 
Q 353 884 353 1716 
Q 353 2575 817 3079 
Q 1281 3584 2069 3584 
Q 2775 3584 3186 3129 
Q 3597 2675 3597 1894 
z
M 3022 2063 
Q 3016 2534 2758 2815 
Q 2500 3097 2075 3097 
Q 1594 3097 1305 2825 
Q 1016 2553 972 2059 
L 3022 2063 
z
" transform="scale(0.015625)"/>
       <path id="DejaVuSans-61" d="M 2194 1759 
Q 1497 1759 1228 1600 
Q 959 1441 959 1056 
Q 959 750 1161 570 
Q 1363 391 1709 391 
Q 2188 391 2477 730 
Q 2766 1069 2766 1631 
L 2766 1759 
L 2194 1759 
z
M 3341 1997 
L 3341 0 
L 2766 0 
L 2766 531 
Q 2569 213 2275 61 
Q 1981 -91 1556 -91 
Q 1019 -91 701 211 
Q 384 513 384 1019 
Q 384 1609 779 1909 
Q 1175 2209 1959 2209 
L 2766 2209 
L 2766 2266 
Q 2766 2663 2505 2880 
Q 2244 3097 1772 3097 
Q 1472 3097 1187 3025 
Q 903 2953 641 2809 
L 641 3341 
Q 956 3463 1253 3523 
Q 1550 3584 1831 3584 
Q 2591 3584 2966 3190 
Q 3341 2797 3341 1997 
z
" transform="scale(0.015625)"/>
       <path id="DejaVuSans-72" d="M 2631 2963 
Q 2534 3019 2420 3045 
Q 2306 3072 2169 3072 
Q 1681 3072 1420 2755 
Q 1159 2438 1159 1844 
L 1159 0 
L 581 0 
L 581 3500 
L 1159 3500 
L 1159 2956 
Q 1341 3275 1631 3429 
Q 1922 3584 2338 3584 
Q 2397 3584 2469 3576 
Q 2541 3569 2628 3553 
L 2631 2963 
z
" transform="scale(0.015625)"/>
       <path id="DejaVuSans-73" d="M 2834 3397 
L 2834 2853 
Q 2591 2978 2328 3040 
Q 2066 3103 1784 3103 
Q 1356 3103 1142 2972 
Q 928 2841 928 2578 
Q 928 2378 1081 2264 
Q 1234 2150 1697 2047 
L 1894 2003 
Q 2506 1872 2764 1633 
Q 3022 1394 3022 966 
Q 3022 478 2636 193 
Q 2250 -91 1575 -91 
Q 1294 -91 989 -36 
Q 684 19 347 128 
L 347 722 
Q 666 556 975 473 
Q 1284 391 1588 391 
Q 1994 391 2212 530 
Q 2431 669 2431 922 
Q 2431 1156 2273 1281 
Q 2116 1406 1581 1522 
L 1381 1569 
Q 847 1681 609 1914 
Q 372 2147 372 2553 
Q 372 3047 722 3315 
Q 1072 3584 1716 3584 
Q 2034 3584 2315 3537 
Q 2597 3491 2834 3397 
z
" transform="scale(0.015625)"/>
       <path id="DejaVuSans-20" transform="scale(0.015625)"/>
       <path id="DejaVuSans-28" d="M 1984 4856 
Q 1566 4138 1362 3434 
Q 1159 2731 1159 2009 
Q 1159 1288 1364 580 
Q 1569 -128 1984 -844 
L 1484 -844 
Q 1016 -109 783 600 
Q 550 1309 550 2009 
Q 550 2706 781 3412 
Q 1013 4119 1484 4856 
L 1984 4856 
z
" transform="scale(0.015625)"/>
       <path id="DejaVuSans-35" d="M 691 4666 
L 3169 4666 
L 3169 4134 
L 1269 4134 
L 1269 2991 
Q 1406 3038 1543 3061 
Q 1681 3084 1819 3084 
Q 2600 3084 3056 2656 
Q 3513 2228 3513 1497 
Q 3513 744 3044 326 
Q 2575 -91 1722 -91 
Q 1428 -91 1123 -41 
Q 819 9 494 109 
L 494 744 
Q 775 591 1075 516 
Q 1375 441 1709 441 
Q 2250 441 2565 725 
Q 2881 1009 2881 1497 
Q 2881 1984 2565 2268 
Q 2250 2553 1709 2553 
Q 1456 2553 1204 2497 
Q 953 2441 691 2322 
L 691 4666 
z
" transform="scale(0.015625)"/>
       <path id="DejaVuSans-2d" d="M 313 2009 
L 1997 2009 
L 1997 1497 
L 313 1497 
L 313 2009 
z
" transform="scale(0.015625)"/>
       <path id="DejaVuSans-29" d="M 513 4856 
L 1013 4856 
Q 1481 4119 1714 3412 
Q 1947 2706 1947 2009 
Q 1947 1309 1714 600 
Q 1481 -109 1013 -844 
L 513 -844 
Q 928 -128 1133 580 
Q 1338 1288 1338 2009 
Q 1338 2731 1133 3434 
Q 928 4138 513 4856 
z
" transform="scale(0.015625)"/>
      </defs>
      <use xlink:href="#DejaVuSans-59"/>
      <use xlink:href="#DejaVuSans-65" x="47.833984"/>
      <use xlink:href="#DejaVuSans-61" x="109.357422"/>
      <use xlink:href="#DejaVuSans-72" x="170.636719"/>
      <use xlink:href="#DejaVuSans-73" x="211.75"/>
      <use xlink:href="#DejaVuSans-20" x="263.849609"/>
      <use xlink:href="#DejaVuSans-28" x="295.636719"/>
      <use xlink:href="#DejaVuSans-32" x="334.650391"/>
      <use xlink:href="#DejaVuSans-30" x="398.273438"/>
      <use xlink:href="#DejaVuSans-30" x="461.896484"/>
      <use xlink:href="#DejaVuSans-35" x="525.519531"/>
      <use xlink:href="#DejaVuSans-2d" x="589.142578"/>
      <use xlink:href="#DejaVuSans-32" x="625.226562"/>
      <use xlink:href="#DejaVuSans-30" x="688.849609"/>
      <use xlink:href="#DejaVuSans-32" x="752.472656"/>
      <use xlink:href="#DejaVuSans-34" x="816.095703"/>
      <use xlink:href="#DejaVuSans-29" x="879.71875"/>
     </g>
    </g>
   </g>
   <g id="matplotlib.axis_2">
    <g id="ytick_1">
     <g id="line2d_11">
      <defs>
       <path id="m1b6e68c0a1" d="M 0 0 
L -3.5 0 
" style="stroke: #000000; stroke-width: 0.8"/>
      </defs>
      <g>
       <use xlink:href="#m1b6e68c0a1" x="47.72" y="291.06" style="stroke: #000000; stroke-width: 0.8"/>
      </g>
     </g>
     <g id="text_12">
      <!-- 0.0 -->
      <g transform="translate(24.816875 294.859219) scale(0.1 -0.1)">
       <defs>
        <path id="DejaVuSans-2e" d="M 684 794 
L 1344 794 
L 1344 0 
L 684 0 
L 684 794 
z
" transform="scale(0.015625)"/>
       </defs>
       <use xlink:href="#DejaVuSans-30"/>
       <use xlink:href="#DejaVuSans-2e" x="63.623047"/>
       <use xlink:href="#DejaVuSans-30" x="95.410156"/>
      </g>
     </g>
    </g>
    <g id="ytick_2">
     <g id="line2d_12">
      <g>
       <use xlink:href="#m1b6e68c0a1" x="47.72" y="240.74" style="stroke: #000000; stroke-width: 0.8"/>
      </g>
     </g>
     <g id="text_13">
      <!-- 0.2 -->
      <g transform="translate(24.816875 244.539219) scale(0.1 -0.1)">
       <use xlink:href="#DejaVuSans-30"/>
       <use xlink:href="#DejaVuSans-2e" x="63.623047"/>
       <use xlink:href="#DejaVuSans-32" x="95.410156"/>
      </g>
     </g>
    </g>
    <g id="ytick_3">
     <g id="line2d_13">
      <g>
       <use xlink:href="#m1b6e68c0a1" x="47.72" y="190.42" style="stroke: #000000; stroke-width: 0.8"/>
      </g>
     </g>
     <g id="text_14">
      <!-- 0.4 -->
      <g transform="translate(24.816875 194.219219) scale(0.1 -0.1)">
       <use xlink:href="#DejaVuSans-30"/>
       <use xlink:href="#DejaVuSans-2e" x="63.623047"/>
       <use xlink:href="#DejaVuSans-34" x="95.410156"/>
      </g>
     </g>
    </g>
    <g id="ytick_4">
     <g id="line2d_14">
      <g>
       <use xlink:href="#m1b6e68c0a1" x="47.72" y="140.1" style="stroke: #000000; stroke-width: 0.8"/>
      </g>
     </g>
     <g id="text_15">
      <!-- 0.6 -->
      <g transform="translate(24.816875 143.899219) scale(0.1 -0.1)">
       <use xlink:href="#DejaVuSans-30"/>
       <use xlink:href="#DejaVuSans-2e" x="63.623047"/>
       <use xlink:href="#DejaVuSans-36" x="95.410156"/>
      </g>
     </g>
    </g>
    <g id="ytick_5">
     <g id="line2d_15">
      <g>
       <use xlink:href="#m1b6e68c0a1" x="47.72" y="89.78" style="stroke: #000000; stroke-width: 0.8"/>
      </g>
     </g>
     <g id="text_16">
      <!-- 0.8 -->
      <g transform="translate(24.816875 93.579219) scale(0.1 -0.1)">
       <use xlink:href="#DejaVuSans-30"/>
       <use xlink:href="#DejaVuSans-2e" x="63.623047"/>
       <use xlink:href="#DejaVuSans-38" x="95.410156"/>
      </g>
     </g>
    </g>
    <g id="ytick_6">
     <g id="line2d_16">
      <g>
       <use xlink:href="#m1b6e68c0a1" x="47.72" y="39.46" style="stroke: #000000; stroke-width: 0.8"/>
      </g>
     </g>
     <g id="text_17">
      <!-- 1.0 -->
      <g transform="translate(24.816875 43.259219) scale(0.1 -0.1)">
       <use xlink:href="#DejaVuSans-31"/>
       <use xlink:href="#DejaVuSans-2e" x="63.623047"/>
       <use xlink:href="#DejaVuSans-30" x="95.410156"/>
      </g>
     </g>
    </g>
    <g id="text_18">
     <!-- Value -->
     <g transform="translate(18.737188 178.99125) rotate(-90) scale(0.1 -0.1)">
      <defs>
       <path id="DejaVuSans-56" d="M 1831 0 
L 50 4666 
L 709 4666 
L 2188 738 
L 3669 4666 
L 4325 4666 
L 2547 0 
L 1831 0 
z
" transform="scale(0.015625)"/>
       <path id="DejaVuSans-6c" d="M 603 4863 
L 1178 4863 
L 1178 0 
L 603 0 
L 603 4863 
z
" transform="scale(0.015625)"/>
       <path id="DejaVuSans-75" d="M 544 1381 
L 544 3500 
L 1119 3500 
L 1119 1403 
Q 1119 906 1312 657 
Q 1506 409 1894 409 
Q 2359 409 2629 706 
Q 2900 1003 2900 1516 
L 2900 3500 
L 3475 3500 
L 3475 0 
L 2900 0 
L 2900 538 
Q 2691 219 2414 64 
Q 2138 -91 1772 -91 
Q 1169 -91 856 284 
Q 544 659 544 1381 
z
M 1991 3584 
L 1991 3584 
z
" transform="scale(0.015625)"/>
      </defs>
      <use xlink:href="#DejaVuSans-56"/>
      <use xlink:href="#DejaVuSans-61" x="60.658203"/>
      <use xlink:href="#DejaVuSans-6c" x="121.9375"/>
      <use xlink:href="#DejaVuSans-75" x="149.720703"/>
      <use xlink:href="#DejaVuSans-65" x="213.099609"/>
     </g>
    </g>
   </g>
   <g id="line2d_17">
    <path d="M 66.005455 203.199683 
L 69.233389 219.174286 
L 70.873815 213.18381 
L 72.461323 213.18381 
L 74.101749 215.180635 
L 75.742175 227.161587 
L 77.329683 229.158413 
L 78.970109 233.152063 
L 80.557618 233.152063 
L 82.198043 235.148889 
L 83.838469 211.186984 
L 85.320144 185.228254 
L 86.96057 165.26 
L 88.548078 189.221905 
L 90.188504 199.206032 
L 91.776013 207.193333 
L 93.416438 193.215556 
L 96.644373 201.202857 
L 98.284798 217.17746 
L 99.872307 221.171111 
L 101.512733 219.174286 
L 103.153158 187.225079 
L 104.634833 177.240952 
L 106.275259 169.253651 
L 107.862768 191.21873 
L 109.503193 193.215556 
L 111.090702 187.225079 
L 112.731128 185.228254 
L 114.371553 179.237778 
L 115.959062 193.215556 
L 117.599488 215.180635 
L 119.186996 227.161587 
L 120.827422 231.155238 
L 122.467848 199.206032 
L 125.642865 187.225079 
L 127.230374 219.174286 
L 128.8708 225.164762 
L 130.458308 215.180635 
L 132.098734 187.225079 
L 133.73916 173.247302 
L 135.326668 181.234603 
L 136.967094 199.206032 
L 138.554603 205.196508 
L 140.195028 195.212381 
L 141.835454 151.282222 
L 143.317129 107.352063 
L 144.957555 81.393333 
L 146.545063 103.358413 
L 148.185489 99.364762 
L 149.772998 81.393333 
L 151.413423 55.434603 
L 153.053849 69.412381 
L 154.641358 93.374286 
L 156.281783 129.317143 
L 157.869292 151.282222 
L 159.509718 159.269524 
L 161.150144 133.310794 
L 162.631818 127.320317 
L 164.272244 123.326667 
L 165.859753 141.298095 
L 167.500178 141.298095 
L 169.087687 137.304444 
L 172.368538 133.310794 
L 173.956047 147.288571 
L 177.183982 189.221905 
L 178.824407 191.21873 
L 180.464833 187.225079 
L 181.946508 181.234603 
L 183.586933 171.250476 
L 185.174442 163.263175 
L 186.814868 167.256825 
L 188.402376 189.221905 
L 190.042802 201.202857 
L 191.683228 193.215556 
L 193.270737 175.244127 
L 194.911162 181.234603 
L 198.139097 197.209206 
L 199.779522 175.244127 
L 202.95454 155.275873 
L 204.542048 177.240952 
L 207.769983 189.221905 
L 209.410408 173.247302 
L 211.050834 179.237778 
L 212.638343 193.215556 
L 214.278768 199.206032 
L 215.866277 201.202857 
L 217.506703 193.215556 
L 219.147129 173.247302 
L 220.628803 179.237778 
L 222.269229 169.253651 
L 223.856738 189.221905 
L 225.497163 183.231429 
L 227.084672 197.209206 
L 228.725098 193.215556 
L 230.365523 205.196508 
L 231.953032 191.21873 
L 236.821392 255.117143 
L 238.461818 251.123492 
L 239.943493 233.152063 
L 243.171427 191.21873 
L 244.811853 183.231429 
L 248.039787 199.206032 
L 249.680213 201.202857 
L 251.267722 213.18381 
L 252.908147 219.174286 
L 254.495656 231.155238 
L 256.136082 219.174286 
L 257.776507 217.17746 
L 259.258182 197.209206 
L 260.898608 157.272698 
L 262.486116 151.282222 
L 264.126542 157.272698 
L 265.714051 197.209206 
L 267.354477 193.215556 
L 268.994902 191.21873 
L 270.582411 185.228254 
L 272.222837 197.209206 
L 273.810345 205.196508 
L 275.450771 211.186984 
L 277.091197 219.174286 
L 278.625788 243.13619 
L 281.853723 255.117143 
L 283.494148 259.110794 
L 286.722083 271.091746 
L 288.362509 265.10127 
L 291.590443 289.063175 
L 293.177952 285.069524 
L 294.818377 285.069524 
L 296.458803 275.085397 
L 297.940478 273.088571 
L 299.580903 271.091746 
L 301.168412 275.085397 
L 302.808838 275.085397 
L 304.396347 269.094921 
L 306.036772 247.129841 
L 307.677198 247.129841 
L 309.264707 259.110794 
L 310.905132 253.120317 
L 312.492641 275.085397 
L 314.133067 275.085397 
L 315.773492 291.06 
L 317.255167 279.079048 
L 318.895593 271.091746 
L 320.483102 265.10127 
L 322.123527 263.104444 
L 323.711036 265.10127 
L 325.351462 251.123492 
L 326.991887 231.155238 
L 328.579396 225.164762 
L 330.219822 245.133016 
L 331.80733 271.091746 
L 333.447756 283.072698 
L 335.088182 281.075873 
L 336.569856 275.085397 
L 338.210282 265.10127 
L 339.797791 267.098095 
L 341.438217 277.082222 
L 343.025725 281.075873 
L 344.666151 263.104444 
L 346.306577 239.14254 
L 347.894085 231.155238 
L 349.534511 241.139365 
L 351.12202 241.139365 
L 352.762445 239.14254 
L 354.402871 215.180635 
L 355.937463 217.17746 
L 357.577888 163.263175 
L 359.165397 121.329841 
L 360.805823 39.46 
L 362.393332 65.41873 
L 364.033757 103.358413 
L 365.674183 137.304444 
L 367.261692 157.272698 
L 368.902117 147.288571 
L 370.489626 183.231429 
L 372.130052 175.244127 
L 373.770477 191.21873 
L 375.252152 169.253651 
L 376.892578 175.244127 
L 378.480087 161.266349 
L 380.120512 163.263175 
L 381.708021 159.269524 
L 383.348447 163.263175 
L 384.988872 169.253651 
L 386.576381 163.263175 
L 388.216807 195.212381 
L 391.444741 253.120317 
L 393.085167 225.164762 
L 394.566842 215.180635 
L 396.207267 211.186984 
L 397.794776 253.120317 
L 399.435202 253.120317 
L 401.02271 261.107619 
L 402.663136 237.145714 
L 404.303562 219.174286 
L 405.89107 199.206032 
L 407.531496 207.193333 
L 409.119005 227.161587 
L 410.75943 245.133016 
L 412.399856 265.10127 
L 413.881531 269.094921 
L 415.521957 257.113968 
L 417.109465 255.117143 
L 418.749891 259.110794 
L 420.3374 275.085397 
L 421.977825 265.10127 
L 423.618251 253.120317 
L 425.20576 249.126667 
L 426.846185 235.148889 
L 428.433694 241.139365 
L 430.07412 239.14254 
L 431.714545 251.123492 
L 431.714545 251.123492 
" clip-path="url(#p05b508f469)" style="fill: none; stroke: #1f77b4; stroke-width: 1.5; stroke-linecap: square"/>
   </g>
   <g id="line2d_18">
    <path d="M 66.005455 264.578269 
L 67.64588 233.748231 
L 69.233389 214.192301 
L 70.873815 207.103652 
L 72.461323 206.970445 
L 75.742175 212.969536 
L 77.329683 214.337812 
L 78.970109 213.438275 
L 80.557618 211.720055 
L 82.198043 209.53042 
L 83.838469 208.531074 
L 85.320144 206.520062 
L 86.96057 202.786616 
L 88.548078 198.581919 
L 90.188504 197.573538 
L 91.776013 198.40613 
L 93.416438 199.979371 
L 95.056864 199.943274 
L 96.644373 199.640149 
L 98.284798 199.037109 
L 99.872307 199.038653 
L 101.512733 198.752617 
L 103.153158 198.178887 
L 104.634833 194.495403 
L 106.275259 190.983943 
L 107.862768 188.134625 
L 109.503193 187.97399 
L 111.090702 188.482192 
L 112.731128 188.588787 
L 114.371553 189.873465 
L 115.959062 190.836242 
L 117.599488 193.01451 
L 120.827422 200.710909 
L 122.467848 203.274955 
L 124.00244 201.67676 
L 125.642865 200.412598 
L 127.230374 197.318049 
L 130.458308 192.546416 
L 132.098734 189.031695 
L 133.73916 183.421059 
L 135.326668 176.833991 
L 136.967094 170.966682 
L 140.195028 155.699983 
L 141.835454 144.311874 
L 143.317129 129.750245 
L 144.957555 115.984571 
L 146.545063 104.211052 
L 148.185489 98.622595 
L 149.772998 96.500376 
L 151.413423 96.65556 
L 153.053849 98.124815 
L 154.641358 102.209675 
L 156.281783 108.088824 
L 161.150144 131.192371 
L 162.631818 136.491019 
L 164.272244 140.775993 
L 165.859753 144.436225 
L 167.500178 148.626555 
L 169.087687 152.371413 
L 172.368538 159.024203 
L 173.956047 161.045616 
L 175.596473 164.189188 
L 177.183982 167.80929 
L 178.824407 172.248157 
L 180.464833 175.588739 
L 181.946508 179.098062 
L 183.586933 181.880923 
L 185.174442 182.233049 
L 186.814868 180.854013 
L 188.402376 178.478375 
L 190.042802 177.734397 
L 193.270737 178.874988 
L 194.911162 178.38404 
L 196.498671 178.582774 
L 198.139097 179.379892 
L 199.779522 181.033394 
L 201.314114 181.293374 
L 202.95454 180.649895 
L 204.542048 179.721947 
L 206.182474 180.52957 
L 207.769983 182.570995 
L 209.410408 185.425435 
L 212.638343 188.39219 
L 217.506703 194.725734 
L 219.147129 195.61814 
L 220.628803 195.536597 
L 222.269229 195.771652 
L 223.856738 195.110815 
L 225.497163 196.019005 
L 227.084672 196.662521 
L 228.725098 198.274663 
L 230.365523 199.229237 
L 231.953032 200.657131 
L 233.593458 200.436075 
L 235.180967 201.47199 
L 236.821392 204.32439 
L 238.461818 208.76394 
L 239.943493 214.089927 
L 241.583918 217.835865 
L 243.171427 218.168015 
L 244.811853 214.805524 
L 246.399361 209.447759 
L 248.039787 204.963632 
L 249.680213 202.792615 
L 251.267722 202.727837 
L 252.908147 204.99193 
L 256.136082 212.039422 
L 257.776507 213.940479 
L 259.258182 214.119088 
L 260.898608 212.488928 
L 264.126542 202.106568 
L 265.714051 198.15517 
L 267.354477 199.47536 
L 268.994902 202.180156 
L 270.582411 205.533905 
L 275.450771 213.115842 
L 277.091197 216.153487 
L 278.625788 221.380647 
L 280.266214 229.658101 
L 281.853723 238.940989 
L 283.494148 247.605005 
L 285.081657 254.519875 
L 286.722083 259.676395 
L 288.362509 263.626196 
L 289.950017 266.428369 
L 291.590443 269.622637 
L 294.818377 277.660816 
L 296.458803 280.57752 
L 297.940478 281.523794 
L 299.580903 280.757463 
L 302.808838 277.333211 
L 304.396347 276.278499 
L 306.036772 275.385509 
L 307.677198 273.195357 
L 309.264707 270.151032 
L 310.905132 267.804825 
L 312.492641 265.812124 
L 314.133067 265.971301 
L 315.773492 267.32395 
L 317.255167 269.941828 
L 318.895593 271.566802 
L 320.483102 271.76086 
L 322.123527 270.752852 
L 323.711036 269.479066 
L 325.351462 268.692599 
L 326.991887 267.70435 
L 328.579396 265.162352 
L 330.219822 261.657002 
L 331.80733 259.716312 
L 333.447756 260.572813 
L 335.088182 263.569367 
L 336.569856 266.55822 
L 338.210282 267.931572 
L 339.797791 266.718994 
L 341.438217 263.650667 
L 343.025725 260.245515 
L 344.666151 257.20798 
L 346.306577 252.847964 
L 347.894085 245.713943 
L 352.762445 217.451069 
L 354.402871 209.385831 
L 355.937463 199.284364 
L 357.577888 190.065736 
L 359.165397 174.424086 
L 360.805823 155.758439 
L 362.393332 135.669959 
L 364.033757 124.682828 
L 365.674183 122.945045 
L 367.261692 128.128025 
L 370.489626 146.503542 
L 372.130052 156.780963 
L 375.252152 170.997379 
L 378.480087 178.812985 
L 380.120512 182.006998 
L 384.988872 193.207516 
L 386.576381 197.685562 
L 388.216807 201.620088 
L 389.804315 208.140587 
L 391.444741 217.065696 
L 393.085167 227.776524 
L 394.566842 235.744479 
L 396.207267 239.907928 
L 397.794776 240.306498 
L 399.435202 240.90528 
L 401.02271 239.672929 
L 402.663136 238.572813 
L 404.303562 237.095622 
L 405.89107 234.319254 
L 407.531496 232.536306 
L 409.119005 232.513519 
L 410.75943 235.962953 
L 412.399856 241.737385 
L 413.881531 247.902015 
L 415.521957 253.53446 
L 417.109465 257.563158 
L 418.749891 260.451716 
L 420.3374 262.375058 
L 421.977825 264.015212 
L 423.618251 264.558305 
L 425.20576 263.918375 
L 426.846185 262.325204 
L 430.07412 256.911176 
L 431.714545 253.77944 
L 431.714545 253.77944 
" clip-path="url(#p05b508f469)" style="fill: none; stroke: #ff7f0e; stroke-width: 1.5; stroke-linecap: square"/>
   </g>
   <g id="patch_3">
    <path d="M 47.72 303.64 
L 47.72 26.88 
" style="fill: none; stroke: #000000; stroke-width: 0.8; stroke-linejoin: miter; stroke-linecap: square"/>
   </g>
   <g id="patch_4">
    <path d="M 450 303.64 
L 450 26.88 
" style="fill: none; stroke: #000000; stroke-width: 0.8; stroke-linejoin: miter; stroke-linecap: square"/>
   </g>
   <g id="patch_5">
    <path d="M 47.72 303.64 
L 450 303.64 
" style="fill: none; stroke: #000000; stroke-width: 0.8; stroke-linejoin: miter; stroke-linecap: square"/>
   </g>
   <g id="patch_6">
    <path d="M 47.72 26.88 
L 450 26.88 
" style="fill: none; stroke: #000000; stroke-width: 0.8; stroke-linejoin: miter; stroke-linecap: square"/>
   </g>
   <g id="text_19">
    <!-- Unenployment Rates Prediction vs Actual -->
    <g transform="translate(124.996562 20.88) scale(0.12 -0.12)">
     <defs>
      <path id="DejaVuSans-55" d="M 556 4666 
L 1191 4666 
L 1191 1831 
Q 1191 1081 1462 751 
Q 1734 422 2344 422 
Q 2950 422 3222 751 
Q 3494 1081 3494 1831 
L 3494 4666 
L 4128 4666 
L 4128 1753 
Q 4128 841 3676 375 
Q 3225 -91 2344 -91 
Q 1459 -91 1007 375 
Q 556 841 556 1753 
L 556 4666 
z
" transform="scale(0.015625)"/>
      <path id="DejaVuSans-6e" d="M 3513 2113 
L 3513 0 
L 2938 0 
L 2938 2094 
Q 2938 2591 2744 2837 
Q 2550 3084 2163 3084 
Q 1697 3084 1428 2787 
Q 1159 2491 1159 1978 
L 1159 0 
L 581 0 
L 581 3500 
L 1159 3500 
L 1159 2956 
Q 1366 3272 1645 3428 
Q 1925 3584 2291 3584 
Q 2894 3584 3203 3211 
Q 3513 2838 3513 2113 
z
" transform="scale(0.015625)"/>
      <path id="DejaVuSans-70" d="M 1159 525 
L 1159 -1331 
L 581 -1331 
L 581 3500 
L 1159 3500 
L 1159 2969 
Q 1341 3281 1617 3432 
Q 1894 3584 2278 3584 
Q 2916 3584 3314 3078 
Q 3713 2572 3713 1747 
Q 3713 922 3314 415 
Q 2916 -91 2278 -91 
Q 1894 -91 1617 61 
Q 1341 213 1159 525 
z
M 3116 1747 
Q 3116 2381 2855 2742 
Q 2594 3103 2138 3103 
Q 1681 3103 1420 2742 
Q 1159 2381 1159 1747 
Q 1159 1113 1420 752 
Q 1681 391 2138 391 
Q 2594 391 2855 752 
Q 3116 1113 3116 1747 
z
" transform="scale(0.015625)"/>
      <path id="DejaVuSans-6f" d="M 1959 3097 
Q 1497 3097 1228 2736 
Q 959 2375 959 1747 
Q 959 1119 1226 758 
Q 1494 397 1959 397 
Q 2419 397 2687 759 
Q 2956 1122 2956 1747 
Q 2956 2369 2687 2733 
Q 2419 3097 1959 3097 
z
M 1959 3584 
Q 2709 3584 3137 3096 
Q 3566 2609 3566 1747 
Q 3566 888 3137 398 
Q 2709 -91 1959 -91 
Q 1206 -91 779 398 
Q 353 888 353 1747 
Q 353 2609 779 3096 
Q 1206 3584 1959 3584 
z
" transform="scale(0.015625)"/>
      <path id="DejaVuSans-79" d="M 2059 -325 
Q 1816 -950 1584 -1140 
Q 1353 -1331 966 -1331 
L 506 -1331 
L 506 -850 
L 844 -850 
Q 1081 -850 1212 -737 
Q 1344 -625 1503 -206 
L 1606 56 
L 191 3500 
L 800 3500 
L 1894 763 
L 2988 3500 
L 3597 3500 
L 2059 -325 
z
" transform="scale(0.015625)"/>
      <path id="DejaVuSans-6d" d="M 3328 2828 
Q 3544 3216 3844 3400 
Q 4144 3584 4550 3584 
Q 5097 3584 5394 3201 
Q 5691 2819 5691 2113 
L 5691 0 
L 5113 0 
L 5113 2094 
Q 5113 2597 4934 2840 
Q 4756 3084 4391 3084 
Q 3944 3084 3684 2787 
Q 3425 2491 3425 1978 
L 3425 0 
L 2847 0 
L 2847 2094 
Q 2847 2600 2669 2842 
Q 2491 3084 2119 3084 
Q 1678 3084 1418 2786 
Q 1159 2488 1159 1978 
L 1159 0 
L 581 0 
L 581 3500 
L 1159 3500 
L 1159 2956 
Q 1356 3278 1631 3431 
Q 1906 3584 2284 3584 
Q 2666 3584 2933 3390 
Q 3200 3197 3328 2828 
z
" transform="scale(0.015625)"/>
      <path id="DejaVuSans-74" d="M 1172 4494 
L 1172 3500 
L 2356 3500 
L 2356 3053 
L 1172 3053 
L 1172 1153 
Q 1172 725 1289 603 
Q 1406 481 1766 481 
L 2356 481 
L 2356 0 
L 1766 0 
Q 1100 0 847 248 
Q 594 497 594 1153 
L 594 3053 
L 172 3053 
L 172 3500 
L 594 3500 
L 594 4494 
L 1172 4494 
z
" transform="scale(0.015625)"/>
      <path id="DejaVuSans-52" d="M 2841 2188 
Q 3044 2119 3236 1894 
Q 3428 1669 3622 1275 
L 4263 0 
L 3584 0 
L 2988 1197 
Q 2756 1666 2539 1819 
Q 2322 1972 1947 1972 
L 1259 1972 
L 1259 0 
L 628 0 
L 628 4666 
L 2053 4666 
Q 2853 4666 3247 4331 
Q 3641 3997 3641 3322 
Q 3641 2881 3436 2590 
Q 3231 2300 2841 2188 
z
M 1259 4147 
L 1259 2491 
L 2053 2491 
Q 2509 2491 2742 2702 
Q 2975 2913 2975 3322 
Q 2975 3731 2742 3939 
Q 2509 4147 2053 4147 
L 1259 4147 
z
" transform="scale(0.015625)"/>
      <path id="DejaVuSans-50" d="M 1259 4147 
L 1259 2394 
L 2053 2394 
Q 2494 2394 2734 2622 
Q 2975 2850 2975 3272 
Q 2975 3691 2734 3919 
Q 2494 4147 2053 4147 
L 1259 4147 
z
M 628 4666 
L 2053 4666 
Q 2838 4666 3239 4311 
Q 3641 3956 3641 3272 
Q 3641 2581 3239 2228 
Q 2838 1875 2053 1875 
L 1259 1875 
L 1259 0 
L 628 0 
L 628 4666 
z
" transform="scale(0.015625)"/>
      <path id="DejaVuSans-64" d="M 2906 2969 
L 2906 4863 
L 3481 4863 
L 3481 0 
L 2906 0 
L 2906 525 
Q 2725 213 2448 61 
Q 2172 -91 1784 -91 
Q 1150 -91 751 415 
Q 353 922 353 1747 
Q 353 2572 751 3078 
Q 1150 3584 1784 3584 
Q 2172 3584 2448 3432 
Q 2725 3281 2906 2969 
z
M 947 1747 
Q 947 1113 1208 752 
Q 1469 391 1925 391 
Q 2381 391 2643 752 
Q 2906 1113 2906 1747 
Q 2906 2381 2643 2742 
Q 2381 3103 1925 3103 
Q 1469 3103 1208 2742 
Q 947 2381 947 1747 
z
" transform="scale(0.015625)"/>
      <path id="DejaVuSans-69" d="M 603 3500 
L 1178 3500 
L 1178 0 
L 603 0 
L 603 3500 
z
M 603 4863 
L 1178 4863 
L 1178 4134 
L 603 4134 
L 603 4863 
z
" transform="scale(0.015625)"/>
      <path id="DejaVuSans-63" d="M 3122 3366 
L 3122 2828 
Q 2878 2963 2633 3030 
Q 2388 3097 2138 3097 
Q 1578 3097 1268 2742 
Q 959 2388 959 1747 
Q 959 1106 1268 751 
Q 1578 397 2138 397 
Q 2388 397 2633 464 
Q 2878 531 3122 666 
L 3122 134 
Q 2881 22 2623 -34 
Q 2366 -91 2075 -91 
Q 1284 -91 818 406 
Q 353 903 353 1747 
Q 353 2603 823 3093 
Q 1294 3584 2113 3584 
Q 2378 3584 2631 3529 
Q 2884 3475 3122 3366 
z
" transform="scale(0.015625)"/>
      <path id="DejaVuSans-76" d="M 191 3500 
L 800 3500 
L 1894 563 
L 2988 3500 
L 3597 3500 
L 2284 0 
L 1503 0 
L 191 3500 
z
" transform="scale(0.015625)"/>
      <path id="DejaVuSans-41" d="M 2188 4044 
L 1331 1722 
L 3047 1722 
L 2188 4044 
z
M 1831 4666 
L 2547 4666 
L 4325 0 
L 3669 0 
L 3244 1197 
L 1141 1197 
L 716 0 
L 50 0 
L 1831 4666 
z
" transform="scale(0.015625)"/>
     </defs>
     <use xlink:href="#DejaVuSans-55"/>
     <use xlink:href="#DejaVuSans-6e" x="73.193359"/>
     <use xlink:href="#DejaVuSans-65" x="136.572266"/>
     <use xlink:href="#DejaVuSans-6e" x="198.095703"/>
     <use xlink:href="#DejaVuSans-70" x="261.474609"/>
     <use xlink:href="#DejaVuSans-6c" x="324.951172"/>
     <use xlink:href="#DejaVuSans-6f" x="352.734375"/>
     <use xlink:href="#DejaVuSans-79" x="413.916016"/>
     <use xlink:href="#DejaVuSans-6d" x="473.095703"/>
     <use xlink:href="#DejaVuSans-65" x="570.507812"/>
     <use xlink:href="#DejaVuSans-6e" x="632.03125"/>
     <use xlink:href="#DejaVuSans-74" x="695.410156"/>
     <use xlink:href="#DejaVuSans-20" x="734.619141"/>
     <use xlink:href="#DejaVuSans-52" x="766.40625"/>
     <use xlink:href="#DejaVuSans-61" x="833.638672"/>
     <use xlink:href="#DejaVuSans-74" x="894.917969"/>
     <use xlink:href="#DejaVuSans-65" x="934.126953"/>
     <use xlink:href="#DejaVuSans-73" x="995.650391"/>
     <use xlink:href="#DejaVuSans-20" x="1047.75"/>
     <use xlink:href="#DejaVuSans-50" x="1079.537109"/>
     <use xlink:href="#DejaVuSans-72" x="1138.089844"/>
     <use xlink:href="#DejaVuSans-65" x="1176.953125"/>
     <use xlink:href="#DejaVuSans-64" x="1238.476562"/>
     <use xlink:href="#DejaVuSans-69" x="1301.953125"/>
     <use xlink:href="#DejaVuSans-63" x="1329.736328"/>
     <use xlink:href="#DejaVuSans-74" x="1384.716797"/>
     <use xlink:href="#DejaVuSans-69" x="1423.925781"/>
     <use xlink:href="#DejaVuSans-6f" x="1451.708984"/>
     <use xlink:href="#DejaVuSans-6e" x="1512.890625"/>
     <use xlink:href="#DejaVuSans-20" x="1576.269531"/>
     <use xlink:href="#DejaVuSans-76" x="1608.056641"/>
     <use xlink:href="#DejaVuSans-73" x="1667.236328"/>
     <use xlink:href="#DejaVuSans-20" x="1719.335938"/>
     <use xlink:href="#DejaVuSans-41" x="1751.123047"/>
     <use xlink:href="#DejaVuSans-63" x="1817.78125"/>
     <use xlink:href="#DejaVuSans-74" x="1872.761719"/>
     <use xlink:href="#DejaVuSans-75" x="1911.970703"/>
     <use xlink:href="#DejaVuSans-61" x="1975.349609"/>
     <use xlink:href="#DejaVuSans-6c" x="2036.628906"/>
    </g>
   </g>
   <g id="legend_1">
    <g id="patch_7">
     <path d="M 54.72 64.23625 
L 133.660625 64.23625 
Q 135.660625 64.23625 135.660625 62.23625 
L 135.660625 33.88 
Q 135.660625 31.88 133.660625 31.88 
L 54.72 31.88 
Q 52.72 31.88 52.72 33.88 
L 52.72 62.23625 
Q 52.72 64.23625 54.72 64.23625 
z
" style="fill: #ffffff; opacity: 0.8; stroke: #cccccc; stroke-linejoin: miter"/>
    </g>
    <g id="line2d_19">
     <path d="M 56.72 39.978437 
L 66.72 39.978437 
L 76.72 39.978437 
" style="fill: none; stroke: #1f77b4; stroke-width: 1.5; stroke-linecap: square"/>
    </g>
    <g id="text_20">
     <!-- Actual -->
     <g transform="translate(84.72 43.478437) scale(0.1 -0.1)">
      <use xlink:href="#DejaVuSans-41"/>
      <use xlink:href="#DejaVuSans-63" x="66.658203"/>
      <use xlink:href="#DejaVuSans-74" x="121.638672"/>
      <use xlink:href="#DejaVuSans-75" x="160.847656"/>
      <use xlink:href="#DejaVuSans-61" x="224.226562"/>
      <use xlink:href="#DejaVuSans-6c" x="285.505859"/>
     </g>
    </g>
    <g id="line2d_20">
     <path d="M 56.72 54.656563 
L 66.72 54.656563 
L 76.72 54.656563 
" style="fill: none; stroke: #ff7f0e; stroke-width: 1.5; stroke-linecap: square"/>
    </g>
    <g id="text_21">
     <!-- Predicted -->
     <g transform="translate(84.72 58.156563) scale(0.1 -0.1)">
      <use xlink:href="#DejaVuSans-50"/>
      <use xlink:href="#DejaVuSans-72" x="58.552734"/>
      <use xlink:href="#DejaVuSans-65" x="97.416016"/>
      <use xlink:href="#DejaVuSans-64" x="158.939453"/>
      <use xlink:href="#DejaVuSans-69" x="222.416016"/>
      <use xlink:href="#DejaVuSans-63" x="250.199219"/>
      <use xlink:href="#DejaVuSans-74" x="305.179688"/>
      <use xlink:href="#DejaVuSans-65" x="344.388672"/>
      <use xlink:href="#DejaVuSans-64" x="405.912109"/>
     </g>
    </g>
   </g>
  </g>
 </g>
 <defs>
  <clipPath id="p05b508f469">
   <rect x="47.72" y="26.88" width="402.28" height="276.76"/>
  </clipPath>
 </defs>
</svg>
